%TF.GenerationSoftware,KiCad,Pcbnew,(6.0.10)*%
%TF.CreationDate,2023-02-17T09:23:00-08:00*%
%TF.ProjectId,PCB layout,50434220-6c61-4796-9f75-742e6b696361,rev?*%
%TF.SameCoordinates,Original*%
%TF.FileFunction,Legend,Top*%
%TF.FilePolarity,Positive*%
%FSLAX46Y46*%
G04 Gerber Fmt 4.6, Leading zero omitted, Abs format (unit mm)*
G04 Created by KiCad (PCBNEW (6.0.10)) date 2023-02-17 09:23:00*
%MOMM*%
%LPD*%
G01*
G04 APERTURE LIST*
%ADD10C,0.150000*%
%ADD11C,0.120000*%
G04 APERTURE END LIST*
D10*
X113555238Y-40425714D02*
X113555238Y-41425714D01*
X113555238Y-40473333D02*
X113650476Y-40425714D01*
X113840952Y-40425714D01*
X113936190Y-40473333D01*
X113983809Y-40520952D01*
X114031428Y-40616190D01*
X114031428Y-40901904D01*
X113983809Y-40997142D01*
X113936190Y-41044761D01*
X113840952Y-41092380D01*
X113650476Y-41092380D01*
X113555238Y-41044761D01*
X114460000Y-41092380D02*
X114460000Y-40425714D01*
X114460000Y-40616190D02*
X114507619Y-40520952D01*
X114555238Y-40473333D01*
X114650476Y-40425714D01*
X114745714Y-40425714D01*
X115507619Y-41092380D02*
X115507619Y-40568571D01*
X115460000Y-40473333D01*
X115364761Y-40425714D01*
X115174285Y-40425714D01*
X115079047Y-40473333D01*
X115507619Y-41044761D02*
X115412380Y-41092380D01*
X115174285Y-41092380D01*
X115079047Y-41044761D01*
X115031428Y-40949523D01*
X115031428Y-40854285D01*
X115079047Y-40759047D01*
X115174285Y-40711428D01*
X115412380Y-40711428D01*
X115507619Y-40663809D01*
X116412380Y-41044761D02*
X116317142Y-41092380D01*
X116126666Y-41092380D01*
X116031428Y-41044761D01*
X115983809Y-40997142D01*
X115936190Y-40901904D01*
X115936190Y-40616190D01*
X115983809Y-40520952D01*
X116031428Y-40473333D01*
X116126666Y-40425714D01*
X116317142Y-40425714D01*
X116412380Y-40473333D01*
X116698095Y-40425714D02*
X117079047Y-40425714D01*
X116840952Y-40092380D02*
X116840952Y-40949523D01*
X116888571Y-41044761D01*
X116983809Y-41092380D01*
X117079047Y-41092380D01*
X117412380Y-41092380D02*
X117412380Y-40425714D01*
X117412380Y-40092380D02*
X117364761Y-40140000D01*
X117412380Y-40187619D01*
X117460000Y-40140000D01*
X117412380Y-40092380D01*
X117412380Y-40187619D01*
X118317142Y-41044761D02*
X118221904Y-41092380D01*
X118031428Y-41092380D01*
X117936190Y-41044761D01*
X117888571Y-40997142D01*
X117840952Y-40901904D01*
X117840952Y-40616190D01*
X117888571Y-40520952D01*
X117936190Y-40473333D01*
X118031428Y-40425714D01*
X118221904Y-40425714D01*
X118317142Y-40473333D01*
X119126666Y-41044761D02*
X119031428Y-41092380D01*
X118840952Y-41092380D01*
X118745714Y-41044761D01*
X118698095Y-40949523D01*
X118698095Y-40568571D01*
X118745714Y-40473333D01*
X118840952Y-40425714D01*
X119031428Y-40425714D01*
X119126666Y-40473333D01*
X119174285Y-40568571D01*
X119174285Y-40663809D01*
X118698095Y-40759047D01*
X120364761Y-41092380D02*
X120364761Y-40092380D01*
X120745714Y-40092380D01*
X120840952Y-40140000D01*
X120888571Y-40187619D01*
X120936190Y-40282857D01*
X120936190Y-40425714D01*
X120888571Y-40520952D01*
X120840952Y-40568571D01*
X120745714Y-40616190D01*
X120364761Y-40616190D01*
X121936190Y-40997142D02*
X121888571Y-41044761D01*
X121745714Y-41092380D01*
X121650476Y-41092380D01*
X121507619Y-41044761D01*
X121412380Y-40949523D01*
X121364761Y-40854285D01*
X121317142Y-40663809D01*
X121317142Y-40520952D01*
X121364761Y-40330476D01*
X121412380Y-40235238D01*
X121507619Y-40140000D01*
X121650476Y-40092380D01*
X121745714Y-40092380D01*
X121888571Y-40140000D01*
X121936190Y-40187619D01*
X122698095Y-40568571D02*
X122840952Y-40616190D01*
X122888571Y-40663809D01*
X122936190Y-40759047D01*
X122936190Y-40901904D01*
X122888571Y-40997142D01*
X122840952Y-41044761D01*
X122745714Y-41092380D01*
X122364761Y-41092380D01*
X122364761Y-40092380D01*
X122698095Y-40092380D01*
X122793333Y-40140000D01*
X122840952Y-40187619D01*
X122888571Y-40282857D01*
X122888571Y-40378095D01*
X122840952Y-40473333D01*
X122793333Y-40520952D01*
X122698095Y-40568571D01*
X122364761Y-40568571D01*
X124269523Y-41092380D02*
X124174285Y-41044761D01*
X124126666Y-40949523D01*
X124126666Y-40092380D01*
X125079047Y-41092380D02*
X125079047Y-40568571D01*
X125031428Y-40473333D01*
X124936190Y-40425714D01*
X124745714Y-40425714D01*
X124650476Y-40473333D01*
X125079047Y-41044761D02*
X124983809Y-41092380D01*
X124745714Y-41092380D01*
X124650476Y-41044761D01*
X124602857Y-40949523D01*
X124602857Y-40854285D01*
X124650476Y-40759047D01*
X124745714Y-40711428D01*
X124983809Y-40711428D01*
X125079047Y-40663809D01*
X125460000Y-40425714D02*
X125698095Y-41092380D01*
X125936190Y-40425714D02*
X125698095Y-41092380D01*
X125602857Y-41330476D01*
X125555238Y-41378095D01*
X125460000Y-41425714D01*
X126460000Y-41092380D02*
X126364761Y-41044761D01*
X126317142Y-40997142D01*
X126269523Y-40901904D01*
X126269523Y-40616190D01*
X126317142Y-40520952D01*
X126364761Y-40473333D01*
X126460000Y-40425714D01*
X126602857Y-40425714D01*
X126698095Y-40473333D01*
X126745714Y-40520952D01*
X126793333Y-40616190D01*
X126793333Y-40901904D01*
X126745714Y-40997142D01*
X126698095Y-41044761D01*
X126602857Y-41092380D01*
X126460000Y-41092380D01*
X127650476Y-40425714D02*
X127650476Y-41092380D01*
X127221904Y-40425714D02*
X127221904Y-40949523D01*
X127269523Y-41044761D01*
X127364761Y-41092380D01*
X127507619Y-41092380D01*
X127602857Y-41044761D01*
X127650476Y-40997142D01*
X127983809Y-40425714D02*
X128364761Y-40425714D01*
X128126666Y-40092380D02*
X128126666Y-40949523D01*
X128174285Y-41044761D01*
X128269523Y-41092380D01*
X128364761Y-41092380D01*
X129983809Y-41092380D02*
X129412380Y-41092380D01*
X129698095Y-41092380D02*
X129698095Y-40092380D01*
X129602857Y-40235238D01*
X129507619Y-40330476D01*
X129412380Y-40378095D01*
X131174285Y-40711428D02*
X131936190Y-40711428D01*
X133126666Y-41044761D02*
X133269523Y-41092380D01*
X133507619Y-41092380D01*
X133602857Y-41044761D01*
X133650476Y-40997142D01*
X133698095Y-40901904D01*
X133698095Y-40806666D01*
X133650476Y-40711428D01*
X133602857Y-40663809D01*
X133507619Y-40616190D01*
X133317142Y-40568571D01*
X133221904Y-40520952D01*
X133174285Y-40473333D01*
X133126666Y-40378095D01*
X133126666Y-40282857D01*
X133174285Y-40187619D01*
X133221904Y-40140000D01*
X133317142Y-40092380D01*
X133555238Y-40092380D01*
X133698095Y-40140000D01*
X134126666Y-40997142D02*
X134174285Y-41044761D01*
X134126666Y-41092380D01*
X134079047Y-41044761D01*
X134126666Y-40997142D01*
X134126666Y-41092380D01*
X134460000Y-40092380D02*
X135031428Y-40092380D01*
X134745714Y-41092380D02*
X134745714Y-40092380D01*
X135364761Y-40997142D02*
X135412380Y-41044761D01*
X135364761Y-41092380D01*
X135317142Y-41044761D01*
X135364761Y-40997142D01*
X135364761Y-41092380D01*
%TO.C,J1*%
X89691666Y-77832380D02*
X89691666Y-78546666D01*
X89644047Y-78689523D01*
X89548809Y-78784761D01*
X89405952Y-78832380D01*
X89310714Y-78832380D01*
X90691666Y-78832380D02*
X90120238Y-78832380D01*
X90405952Y-78832380D02*
X90405952Y-77832380D01*
X90310714Y-77975238D01*
X90215476Y-78070476D01*
X90120238Y-78118095D01*
%TO.C,SW1*%
X127126666Y-45714761D02*
X127269523Y-45762380D01*
X127507619Y-45762380D01*
X127602857Y-45714761D01*
X127650476Y-45667142D01*
X127698095Y-45571904D01*
X127698095Y-45476666D01*
X127650476Y-45381428D01*
X127602857Y-45333809D01*
X127507619Y-45286190D01*
X127317142Y-45238571D01*
X127221904Y-45190952D01*
X127174285Y-45143333D01*
X127126666Y-45048095D01*
X127126666Y-44952857D01*
X127174285Y-44857619D01*
X127221904Y-44810000D01*
X127317142Y-44762380D01*
X127555238Y-44762380D01*
X127698095Y-44810000D01*
X128031428Y-44762380D02*
X128269523Y-45762380D01*
X128460000Y-45048095D01*
X128650476Y-45762380D01*
X128888571Y-44762380D01*
X129793333Y-45762380D02*
X129221904Y-45762380D01*
X129507619Y-45762380D02*
X129507619Y-44762380D01*
X129412380Y-44905238D01*
X129317142Y-45000476D01*
X129221904Y-45048095D01*
%TO.C,D1*%
X160551904Y-77772380D02*
X160551904Y-76772380D01*
X160790000Y-76772380D01*
X160932857Y-76820000D01*
X161028095Y-76915238D01*
X161075714Y-77010476D01*
X161123333Y-77200952D01*
X161123333Y-77343809D01*
X161075714Y-77534285D01*
X161028095Y-77629523D01*
X160932857Y-77724761D01*
X160790000Y-77772380D01*
X160551904Y-77772380D01*
X162075714Y-77772380D02*
X161504285Y-77772380D01*
X161790000Y-77772380D02*
X161790000Y-76772380D01*
X161694761Y-76915238D01*
X161599523Y-77010476D01*
X161504285Y-77058095D01*
%TO.C,R2*%
X166592380Y-58586666D02*
X166116190Y-58920000D01*
X166592380Y-59158095D02*
X165592380Y-59158095D01*
X165592380Y-58777142D01*
X165640000Y-58681904D01*
X165687619Y-58634285D01*
X165782857Y-58586666D01*
X165925714Y-58586666D01*
X166020952Y-58634285D01*
X166068571Y-58681904D01*
X166116190Y-58777142D01*
X166116190Y-59158095D01*
X165687619Y-58205714D02*
X165640000Y-58158095D01*
X165592380Y-58062857D01*
X165592380Y-57824761D01*
X165640000Y-57729523D01*
X165687619Y-57681904D01*
X165782857Y-57634285D01*
X165878095Y-57634285D01*
X166020952Y-57681904D01*
X166592380Y-58253333D01*
X166592380Y-57634285D01*
%TO.C,R1*%
X98893333Y-45092380D02*
X98560000Y-44616190D01*
X98321904Y-45092380D02*
X98321904Y-44092380D01*
X98702857Y-44092380D01*
X98798095Y-44140000D01*
X98845714Y-44187619D01*
X98893333Y-44282857D01*
X98893333Y-44425714D01*
X98845714Y-44520952D01*
X98798095Y-44568571D01*
X98702857Y-44616190D01*
X98321904Y-44616190D01*
X99845714Y-45092380D02*
X99274285Y-45092380D01*
X99560000Y-45092380D02*
X99560000Y-44092380D01*
X99464761Y-44235238D01*
X99369523Y-44330476D01*
X99274285Y-44378095D01*
%TO.C,C1*%
X132913333Y-77887142D02*
X132865714Y-77934761D01*
X132722857Y-77982380D01*
X132627619Y-77982380D01*
X132484761Y-77934761D01*
X132389523Y-77839523D01*
X132341904Y-77744285D01*
X132294285Y-77553809D01*
X132294285Y-77410952D01*
X132341904Y-77220476D01*
X132389523Y-77125238D01*
X132484761Y-77030000D01*
X132627619Y-76982380D01*
X132722857Y-76982380D01*
X132865714Y-77030000D01*
X132913333Y-77077619D01*
X133865714Y-77982380D02*
X133294285Y-77982380D01*
X133580000Y-77982380D02*
X133580000Y-76982380D01*
X133484761Y-77125238D01*
X133389523Y-77220476D01*
X133294285Y-77268095D01*
D11*
%TO.C,J1*%
X86965000Y-80780000D02*
X87575000Y-80780000D01*
X90125000Y-83080000D02*
X90125000Y-83580000D01*
X93085000Y-84190000D02*
X93085000Y-79470000D01*
X87575000Y-83580000D02*
X92475000Y-83580000D01*
X87915000Y-79170000D02*
X86665000Y-79170000D01*
X87575000Y-80080000D02*
X87575000Y-83580000D01*
X88725000Y-79470000D02*
X88725000Y-79270000D01*
X86965000Y-79470000D02*
X86965000Y-84190000D01*
X89925000Y-83580000D02*
X89925000Y-83080000D01*
X89525000Y-80080000D02*
X87575000Y-80080000D01*
X89925000Y-83080000D02*
X90125000Y-83080000D01*
X92475000Y-83580000D02*
X92475000Y-80080000D01*
X90525000Y-80080000D02*
X90525000Y-79470000D01*
X93085000Y-79470000D02*
X86965000Y-79470000D01*
X88725000Y-79370000D02*
X88425000Y-79370000D01*
X86665000Y-79170000D02*
X86665000Y-80420000D01*
X86965000Y-82080000D02*
X87575000Y-82080000D01*
X88725000Y-79270000D02*
X88425000Y-79270000D01*
X89525000Y-79470000D02*
X89525000Y-80080000D01*
X86965000Y-84190000D02*
X93085000Y-84190000D01*
X90025000Y-83580000D02*
X90025000Y-83080000D01*
X88425000Y-79270000D02*
X88425000Y-79470000D01*
X92475000Y-80080000D02*
X90525000Y-80080000D01*
X93085000Y-80780000D02*
X92475000Y-80780000D01*
X93085000Y-82080000D02*
X92475000Y-82080000D01*
%TO.C,SW1*%
X123510000Y-46160000D02*
X133410000Y-46160000D01*
X121160000Y-45210000D02*
X122460000Y-45210000D01*
X121160000Y-46510000D02*
X121160000Y-45210000D01*
X121460000Y-52110000D02*
X121460000Y-46910000D01*
X133410000Y-52860000D02*
X123510000Y-52860000D01*
X135460000Y-46910000D02*
X135460000Y-52110000D01*
%TO.C,D1*%
X158730000Y-79735000D02*
X158730000Y-82825000D01*
X164280000Y-81280462D02*
G75*
G03*
X158730000Y-79735170I-2990000J462D01*
G01*
X158730000Y-82824830D02*
G75*
G03*
X164280000Y-81279538I2560000J1544830D01*
G01*
X163790000Y-81280000D02*
G75*
G03*
X163790000Y-81280000I-2500000J0D01*
G01*
%TO.C,R2*%
X165140000Y-66290000D02*
X165140000Y-50550000D01*
X165140000Y-50550000D02*
X159900000Y-50550000D01*
X162520000Y-67140000D02*
X162520000Y-66290000D01*
X159900000Y-50550000D02*
X159900000Y-66290000D01*
X159900000Y-66290000D02*
X165140000Y-66290000D01*
X162520000Y-49700000D02*
X162520000Y-50550000D01*
%TO.C,R1*%
X107780000Y-48260000D02*
X106930000Y-48260000D01*
X106930000Y-50880000D02*
X106930000Y-45640000D01*
X106930000Y-45640000D02*
X91190000Y-45640000D01*
X90340000Y-48260000D02*
X91190000Y-48260000D01*
X91190000Y-50880000D02*
X106930000Y-50880000D01*
X91190000Y-45640000D02*
X91190000Y-50880000D01*
%TO.C,C1*%
X135700000Y-81280000D02*
G75*
G03*
X135700000Y-81280000I-2620000J0D01*
G01*
%TD*%
M02*
